<?xml version="1.0" encoding="UTF-8" standalone="no"?>
<!-- Created with Inkscape (http://www.inkscape.org/) -->

<svg
   version="1.1"
   id="svg9"
   xml:space="preserve"
   width="1284"
   height="1060"
   viewBox="0 0 1284 1060"
   sodipodi:docname="AA_PARTS_FINAL.svg"
   inkscape:version="1.1.1 (3bf5ae0d25, 2021-09-20)"
   xmlns:inkscape="http://www.inkscape.org/namespaces/inkscape"
   xmlns:sodipodi="http://sodipodi.sourceforge.net/DTD/sodipodi-0.dtd"
   xmlns="http://www.w3.org/2000/svg"
   xmlns:svg="http://www.w3.org/2000/svg"><defs
     id="defs13"><clipPath
       clipPathUnits="userSpaceOnUse"
       id="clipPath25"><path
         d="M 0,795 H 963 V 0 H 0 Z"
         id="path23" /></clipPath><clipPath
       clipPathUnits="userSpaceOnUse"
       id="clipPath33"><path
         d="M 378.398,32.4728 H 584.602 V 14.4287 H 378.398 Z"
         id="path31" /></clipPath><clipPath
       clipPathUnits="userSpaceOnUse"
       id="clipPath89"><path
         d="M 0,795 H 963 V 0 H 0 Z"
         id="path87" /></clipPath><linearGradient
       x1="0"
       y1="0"
       x2="1"
       y2="0"
       gradientUnits="userSpaceOnUse"
       gradientTransform="matrix(27.327269,57.551861,57.551861,-27.327269,712.48694,548.01038)"
       spreadMethod="pad"
       id="linearGradient113"><stop
         style="stop-opacity:1;stop-color:#262c2d"
         offset="0"
         id="stop107" /><stop
         style="stop-opacity:1;stop-color:#262c2d"
         offset="0.69275485"
         id="stop109" /><stop
         style="stop-opacity:1;stop-color:#17191b"
         offset="1"
         id="stop111" /></linearGradient><clipPath
       clipPathUnits="userSpaceOnUse"
       id="clipPath123"><path
         d="M 0,795 H 963 V 0 H 0 Z"
         id="path121" /></clipPath><linearGradient
       x1="0"
       y1="0"
       x2="1"
       y2="0"
       gradientUnits="userSpaceOnUse"
       gradientTransform="matrix(27.327269,57.551861,57.551861,-27.327269,303.86612,548.01038)"
       spreadMethod="pad"
       id="linearGradient163"><stop
         style="stop-opacity:1;stop-color:#262c2d"
         offset="0"
         id="stop157" /><stop
         style="stop-opacity:1;stop-color:#262c2d"
         offset="0.69275485"
         id="stop159" /><stop
         style="stop-opacity:1;stop-color:#17191b"
         offset="1"
         id="stop161" /></linearGradient></defs><sodipodi:namedview
     id="namedview11"
     pagecolor="#ffffff"
     bordercolor="#666666"
     borderopacity="1.0"
     inkscape:pageshadow="2"
     inkscape:pageopacity="0.0"
     inkscape:pagecheckerboard="0"
     showgrid="false"
     inkscape:zoom="0.72358491"
     inkscape:cx="642.63364"
     inkscape:cy="530"
     inkscape:window-width="1920"
     inkscape:window-height="1017"
     inkscape:window-x="-8"
     inkscape:window-y="-8"
     inkscape:window-maximized="1"
     inkscape:current-layer="g15" /><g
     id="g15"
     inkscape:groupmode="layer"
     inkscape:label="AA_PARTS_FINAL"
     transform="matrix(1.3333333,0,0,-1.3333333,0,1060)"><path
       d="M 0,0 H 963 V 795 H 0 Z"
       style="fill:#afafaf;fill-opacity:1;fill-rule:nonzero;stroke:none"
       id="path17" /><g
       id="g19"><g
         id="g21"
         clip-path="url(#clipPath25)"><g
           id="g27"><g
             id="g29" /><g
             id="g65"><g
               clip-path="url(#clipPath33)"
               opacity="0.110001"
               id="g63"><g
                 transform="translate(380.6951,32.4728)"
                 id="g37"><path
                   d="M 0,0 V -7.703 H 3.04 L 14.301,0 h 3.897 L 5.63,-8.67 19.324,-18.04 H 15.27 L 2.905,-9.662 H 0 V -18.04 H -2.297 V 0 Z"
                   style="fill:#231f20;fill-opacity:1;fill-rule:nonzero;stroke:none"
                   id="path35" /></g><g
                 transform="translate(427.7467,26.91)"
                 id="g41"><path
                   d="m 0,0 c 0,0.698 0.09,1.982 -0.698,2.77 -0.653,0.698 -1.824,0.811 -3.041,0.811 h -8.13 c -1.374,0 -3.716,0.09 -4.707,-0.878 C -17.544,1.779 -17.5,0.135 -17.5,-1.419 v -2.972 c 0,-2.05 -0.067,-4.257 1.014,-5.316 0.991,-0.924 3.266,-0.788 4.392,-0.788 h 7.59 c 1.666,0 3.108,-0.023 4.031,1.554 0.361,0.63 0.361,2.184 0.361,3.603 h -9.167 v 1.937 H 2.365 v -1.734 c 0,-1.306 0.18,-4.302 -1.351,-5.856 -1.284,-1.329 -3.266,-1.486 -4.978,-1.486 h -8.446 c -1.126,0 -4.346,-0.09 -5.923,1.486 -1.509,1.486 -1.486,4.099 -1.486,5.721 v 3.919 c 0,1.284 -0.09,3.941 1.419,5.428 1.486,1.508 3.873,1.486 5.945,1.486 h 8.334 c 1.418,0 4.414,-0.248 5.675,-2.297 C 2.117,2.387 2.14,1.036 2.14,0 Z"
                   style="fill:#231f20;fill-opacity:1;fill-rule:nonzero;stroke:none"
                   id="path39" /></g><g
                 transform="translate(452.9076,16.415)"
                 id="g45"><path
                   d="m 0,0 c 1.599,0 4.347,-0.203 5.54,1.892 0.991,1.666 0.946,8.738 0,10.36 C 4.347,14.324 1.081,14.076 0,14.076 H -10.968 V 0 Z M 7.59,13.378 C 9.009,10.923 8.874,3.243 7.545,0.855 5.901,-2.05 2.004,-1.982 0.158,-1.982 h -13.446 v 18.04 H 0.225 c 2.41,0 5.811,-0.045 7.365,-2.68"
                   style="fill:#231f20;fill-opacity:1;fill-rule:nonzero;stroke:none"
                   id="path43" /></g><g
                 transform="translate(488.6087,27.18)"
                 id="g49"><path
                   d="m 0,0 c 0,0.856 -0.023,1.825 -0.586,2.41 -0.608,0.653 -1.171,0.901 -3.446,0.901 h -7.319 c -1.104,0 -2.973,0.067 -3.806,-1.486 -0.271,-0.473 -0.338,-2.793 0,-3.311 0.72,-1.217 2.544,-1.217 4.234,-1.217 h 7.297 c 2.117,0 4.549,0 5.833,-2.161 0.676,-1.104 0.676,-4.482 0.045,-5.631 -1.351,-2.455 -4.099,-2.252 -6.554,-2.252 h -7.68 c -1.531,0 -3.941,0 -5.157,1.779 -0.699,1.058 -0.631,2.14 -0.631,3.806 h 2.252 c 0,-0.36 -0.067,-2.252 0.563,-2.905 0.698,-0.766 1.847,-0.698 2.838,-0.698 h 6.712 c 1.936,0 4.684,-0.136 5.54,1.328 0.293,0.518 0.338,2.928 0,3.469 -0.833,1.351 -1.824,1.171 -3.964,1.171 h -7.072 c -2.275,0 -5.18,0.068 -6.396,2.252 -0.676,1.194 -0.698,4.324 0,5.518 1.351,2.253 3.784,2.32 6.621,2.32 h 7.343 c 1.914,0 3.401,-0.338 4.594,-1.622 C 2.184,2.681 2.252,1.577 2.252,0 Z"
                   style="fill:#231f20;fill-opacity:1;fill-rule:nonzero;stroke:none"
                   id="path47" /></g><g
                 transform="translate(520.6604,26.91)"
                 id="g53"><path
                   d="m 0,0 c 0,0.698 0.09,1.982 -0.698,2.77 -0.653,0.698 -1.824,0.811 -3.041,0.811 h -8.13 c -1.374,0 -3.716,0.09 -4.707,-0.878 C -17.544,1.779 -17.5,0.135 -17.5,-1.419 v -2.972 c 0,-2.05 -0.067,-4.257 1.014,-5.316 0.991,-0.924 3.266,-0.788 4.392,-0.788 h 7.59 c 1.666,0 3.108,-0.023 4.031,1.554 0.361,0.63 0.361,2.184 0.361,3.603 h -9.167 v 1.937 H 2.365 v -1.734 c 0,-1.306 0.18,-4.302 -1.351,-5.856 -1.284,-1.329 -3.266,-1.486 -4.978,-1.486 h -8.446 c -1.126,0 -4.346,-0.09 -5.923,1.486 -1.509,1.486 -1.486,4.099 -1.486,5.721 v 3.919 c 0,1.284 -0.09,3.941 1.419,5.428 1.486,1.508 3.873,1.486 5.945,1.486 h 8.334 c 1.418,0 4.414,-0.248 5.675,-2.297 C 2.117,2.387 2.14,1.036 2.14,0 Z"
                   style="fill:#231f20;fill-opacity:1;fill-rule:nonzero;stroke:none"
                   id="path51" /></g><g
                 transform="translate(536.0693,32.4728)"
                 id="g57"><path
                   d="M 0,0 16.351,-15.923 V 0 h 2.297 V -18.04 H 15.09 L -1.216,-2.184 V -18.04 h -2.32 V 0 Z"
                   style="fill:#231f20;fill-opacity:1;fill-rule:nonzero;stroke:none"
                   id="path55" /></g><g
                 transform="translate(581.8826,27.18)"
                 id="g61"><path
                   d="m 0,0 c 0,0.856 -0.022,1.825 -0.585,2.41 -0.608,0.653 -1.172,0.901 -3.446,0.901 h -7.32 c -1.104,0 -2.973,0.067 -3.806,-1.486 -0.27,-0.473 -0.338,-2.793 0,-3.311 0.721,-1.217 2.545,-1.217 4.234,-1.217 h 7.297 c 2.117,0 4.55,0 5.834,-2.161 0.675,-1.104 0.675,-4.482 0.044,-5.631 -1.351,-2.455 -4.098,-2.252 -6.554,-2.252 h -7.68 c -1.531,0 -3.941,0 -5.157,1.779 -0.698,1.058 -0.631,2.14 -0.631,3.806 h 2.252 c 0,-0.36 -0.067,-2.252 0.564,-2.905 0.698,-0.766 1.846,-0.698 2.837,-0.698 h 6.712 c 1.937,0 4.685,-0.136 5.541,1.328 0.292,0.518 0.337,2.928 0,3.469 -0.834,1.351 -1.825,1.171 -3.965,1.171 h -7.072 c -2.274,0 -5.179,0.068 -6.396,2.252 -0.675,1.194 -0.698,4.324 0,5.518 1.352,2.253 3.784,2.32 6.622,2.32 h 7.342 c 1.914,0 3.401,-0.338 4.594,-1.622 C 2.185,2.681 2.252,1.577 2.252,0 Z"
                   style="fill:#231f20;fill-opacity:1;fill-rule:nonzero;stroke:none"
                   id="path59" /></g></g></g></g></g></g><g
       id="g67"
       transform="translate(339.1572,638.6459)"><path
         d="M 0,0 H -115.212 L 21.163,-364.906 h 115.208 z"
         style="fill:#17191b;fill-opacity:1;fill-rule:evenodd;stroke:none"
         id="path69" /></g><g
       id="g71"
       transform="translate(223.9456,638.6459)"><path
         d="M 0,0 H 115.212 L -21.172,-364.906 h -115.207 z"
         style="fill:#231f20;fill-opacity:1;fill-rule:evenodd;stroke:none"
         id="path73" /></g><g
       id="g75"
       transform="translate(747.7007,638.6459)"><path
         d="M 0,0 H -115.212 L 21.163,-364.906 h 115.208 z"
         style="fill:#17191b;fill-opacity:1;fill-rule:evenodd;stroke:none"
         id="path77" /></g><g
       id="g79"
       transform="translate(632.4891,638.6459)"><path
         d="M 0,0 H 115.212 L -21.172,-364.906 h -115.207 z"
         style="fill:#231f20;fill-opacity:1;fill-rule:evenodd;stroke:none"
         id="path81" /></g><g
       id="g83"><g
         id="g85"
         clip-path="url(#clipPath89)"><g
           id="g91"
           transform="translate(888.039,329.5565)"><path
             d="m 0,0 -16.041,-0.011 -797.037,-0.016 c 217.16,19.906 451.447,26.012 700.19,10.618 C -75.478,8.287 0,0 0,0"
             style="fill:#231f20;fill-opacity:1;fill-rule:nonzero;stroke:none"
             id="path93" /></g></g></g><g
       id="g95"><g
         id="g97"><g
           id="g103"><g
             id="g105"><path
               d="m 737.781,612.017 c -4.529,-12.118 -9.058,-24.236 -13.588,-36.355 v 0 c -5.635,-15.077 -11.271,-30.156 -16.906,-45.234 v 0 c -4.172,-11.161 -8.343,-22.322 -12.515,-33.484 v 0 c -1.549,-4.144 -3.098,-8.288 -4.647,-12.433 v 0 c 21.238,45.935 42.474,91.871 63.711,137.806 v 0 c -2.034,5.443 -4.068,10.886 -6.103,16.329 v 0 c -3.317,-8.876 -6.634,-17.752 -9.952,-26.629"
               style="fill:url(#linearGradient113);stroke:none"
               id="path115" /></g></g></g></g><g
       id="g117"><g
         id="g119"
         clip-path="url(#clipPath123)"><g
           id="g125"
           transform="translate(202.6817,211.6808)"><path
             d="m 0,0 c 10.269,0 23.96,-0.777 29.17,6.86 3.125,4.401 2.828,22.392 0.297,26.405 -5.06,7.766 -24.109,6.859 -30.658,6.859 H -67.418 V 0 Z m 5.804,51.515 c 8.334,0 29.319,0.518 37.206,-11.002 C 47.327,33.782 48.219,6.472 43.457,-0.388 34.826,-12.814 18.455,-11.52 6.102,-11.52 h -73.52 V -52.162 H -82.747 V 51.515 Z"
             style="fill:#231f20;fill-opacity:1;fill-rule:nonzero;stroke:none"
             id="path127" /></g><g
           id="g129"
           transform="translate(356.576,193.1718)"><path
             d="M 0,0 -39.29,59.022 -78.728,0 Z M -29.319,70.024 41.225,-33.653 H 23.961 l -15.478,22.91 h -94.207 l -15.329,-22.91 h -17.263 l 68.608,103.677 z"
             style="fill:#231f20;fill-opacity:1;fill-rule:nonzero;stroke:none"
             id="path131" /></g><g
           id="g133"
           transform="translate(503.181,211.9397)"><path
             d="m 0,0 c 14.436,0 25.896,-0.777 31.551,7.119 2.976,4.012 2.53,21.745 0,25.239 -5.358,8.414 -19.645,7.507 -26.789,7.507 h -72.18 V 0 Z m 8.483,51.256 c 6.697,0 29.17,0.388 37.355,-12.814 3.274,-5.436 4.614,-30.676 0.447,-35.983 -4.167,-5.695 -8.93,-7.248 -16.669,-8.542 21.134,-4.919 19.198,-16.309 19.198,-30.806 V -52.421 H 33.635 v 13.073 c 0,6.342 0.595,19.803 -4.019,23.945 -5.804,5.307 -18.454,4.142 -25.449,4.142 h -71.585 v -41.16 H -82.747 V 51.256 Z"
             style="fill:#231f20;fill-opacity:1;fill-rule:nonzero;stroke:none"
             id="path135" /></g><g
           id="g137"
           transform="translate(703.0671,263.1956)"><path
             d="m 0,0 v -11.39 h -58.786 v -92.287 h -15.329 v 92.287 h -59.828 V 0 Z"
             style="fill:#231f20;fill-opacity:1;fill-rule:nonzero;stroke:none"
             id="path139" /></g><g
           id="g141"
           transform="translate(844.3128,232.7787)"><path
             d="m 0,0 c 0,4.918 -0.149,10.484 -3.87,13.849 -4.018,3.754 -7.739,5.177 -22.77,5.177 h -48.369 c -7.292,0 -19.645,0.389 -25.151,-8.542 -1.786,-2.718 -2.232,-16.05 0,-19.027 4.762,-6.989 16.817,-6.989 27.979,-6.989 h 48.22 c 13.989,0 30.063,0 38.546,-12.426 C 19.05,-34.3 19.05,-53.715 14.882,-60.316 5.953,-74.425 -12.204,-73.26 -28.426,-73.26 h -50.75 c -10.12,0 -26.044,0 -34.081,10.225 -4.614,6.084 -4.167,12.297 -4.167,21.875 h 14.882 c 0,-2.071 -0.446,-12.944 3.721,-16.697 4.613,-4.401 12.204,-4.013 18.752,-4.013 h 44.351 c 12.799,0 30.956,-0.776 36.611,7.637 1.934,2.977 2.232,16.826 0,19.933 -5.507,7.766 -12.056,6.73 -26.194,6.73 h -46.731 c -15.031,0 -34.23,0.389 -42.266,12.944 -4.465,6.86 -4.614,24.851 0,31.711 8.929,12.944 25.002,13.332 43.754,13.332 h 48.517 c 12.65,0 22.473,-1.942 30.361,-9.32 C 14.436,15.402 14.882,9.06 14.882,0 Z"
             style="fill:#231f20;fill-opacity:1;fill-rule:nonzero;stroke:none"
             id="path143" /></g></g></g><g
       id="g145"><g
         id="g147"><g
           id="g153"><g
             id="g155"><path
               d="m 329.161,612.017 c -4.53,-12.118 -9.059,-24.236 -13.589,-36.355 v 0 c -5.635,-15.077 -11.27,-30.156 -16.906,-45.234 v 0 c -4.172,-11.161 -8.343,-22.322 -12.515,-33.484 v 0 c -1.549,-4.144 -3.097,-8.288 -4.646,-12.433 v 0 c 21.236,45.935 42.473,91.871 63.71,137.806 v 0 c -2.034,5.443 -4.068,10.886 -6.102,16.329 v 0 c -3.318,-8.876 -6.635,-17.752 -9.952,-26.629"
               style="fill:url(#linearGradient163);stroke:none"
               id="path165" /></g></g></g></g></g></svg>
