<svg width="880" height="160" viewBox="0 0 880 160" fill="none" xmlns="http://www.w3.org/2000/svg">
<path d="M402.775 79.936C410.069 79.936 419.794 80.4879 423.495 75.0633C425.714 71.9373 425.503 59.1583 423.706 56.3079C420.112 50.7917 406.581 51.4359 401.929 51.4359H354.888V79.936H402.775ZM406.898 43.3449C412.817 43.3449 427.723 42.9769 433.325 51.1596C436.392 55.9406 437.025 75.3389 433.643 80.2116C427.512 89.0378 415.884 88.1187 407.109 88.1187H354.888V116.987H344V43.3449H406.898Z" fill="#231F20"/>
<path d="M512.087 93.0832L484.179 51.1598L456.166 93.0832H512.087ZM491.261 43.3451L541.369 116.987H529.106L518.112 100.714H451.197L440.309 116.987H428.047L476.779 43.3451H491.261Z" fill="#231F20"/>
<path d="M616.22 79.7524C626.474 79.7524 634.614 80.3043 638.631 74.6958C640.745 71.846 640.428 59.2503 638.631 56.7685C634.825 50.792 624.677 51.4363 619.603 51.4363H568.333V79.7524H616.22ZM622.246 43.3452C627.003 43.3452 642.965 43.0696 648.779 52.447C651.104 56.3082 652.056 74.2362 649.096 78.0058C646.137 82.0509 642.753 83.154 637.256 84.0732C652.268 87.5671 650.893 95.6574 650.893 105.955V116.987H640.111V107.701C640.111 103.197 640.534 93.6352 637.256 90.6932C633.134 86.9236 624.149 87.7511 619.18 87.7511H568.333V116.987H557.445V43.3452H622.246Z" fill="#231F20"/>
<path d="M758.199 43.3452V51.4356H716.444V116.987H705.556V51.4356H663.06V43.3452H758.199Z" fill="#231F20"/>
<path d="M858.526 64.9504C858.526 61.4572 858.42 57.5036 855.777 55.1135C852.923 52.447 850.28 51.4362 839.604 51.4362H805.247C800.068 51.4362 791.293 51.1599 787.383 57.5036C786.114 59.4342 785.797 68.9039 787.383 71.0185C790.765 75.9828 799.328 75.9828 807.256 75.9828H841.507C851.443 75.9828 862.861 75.9828 868.886 84.809C872.058 89.3137 872.058 103.104 869.097 107.793C862.755 117.815 849.858 116.987 838.335 116.987H802.288C795.099 116.987 783.788 116.987 778.08 109.724C774.802 105.403 775.12 100.99 775.12 94.1864H785.691C785.691 95.6574 785.374 103.381 788.334 106.046C791.61 109.172 797.002 108.897 801.653 108.897H833.156C842.247 108.897 855.144 109.448 859.161 103.472C860.534 101.358 860.746 91.5206 859.161 89.3137C855.249 83.7975 850.597 84.5334 840.555 84.5334H807.362C796.685 84.5334 783.048 84.2571 777.34 75.3393C774.169 70.4666 774.063 57.6876 777.34 52.8149C783.683 43.6208 795.099 43.3452 808.419 43.3452H842.88C851.866 43.3452 858.843 44.7246 864.446 49.9652C868.78 54.0104 869.097 58.5151 869.097 64.9504H858.526Z" fill="#231F20"/>
<path fill-rule="evenodd" clip-rule="evenodd" d="M117.913 4.99998H70.4176L126.637 155.43H174.131L117.913 4.99998Z" fill="#17191B"/>
<path fill-rule="evenodd" clip-rule="evenodd" d="M286.332 4.99998H238.837L295.056 155.43H342.55L286.332 4.99998Z" fill="#17191B"/>
<path d="M344.185 132.397L337.573 132.401L9 132.408C98.5226 124.25 195.106 121.747 297.648 128.056C313.07 129 344.185 132.397 344.185 132.397Z" fill="url(#paint0_radial_221_106)"/>
<path d="M282.243 15.9776C280.376 20.9731 278.509 25.9687 276.641 30.9647C274.318 37.1801 271.995 43.3963 269.672 49.6121C267.952 54.2131 266.232 58.8141 264.512 63.4156C263.874 65.1239 263.235 66.8323 262.597 68.541C271.352 49.6046 280.106 30.6679 288.861 11.7315C288.023 9.48766 287.184 7.24383 286.345 4.99999C284.978 8.65906 283.61 12.3181 282.243 15.9776Z" fill="url(#paint1_linear_221_106)"/>
<path fill-rule="evenodd" clip-rule="evenodd" d="M70.4178 4.99998H117.913L61.6898 155.43H14.1965L70.4178 4.99998Z" fill="url(#paint2_linear_221_106)"/>
<path d="M113.792 15.9776C111.925 20.9731 110.058 25.9687 108.19 30.9647C105.867 37.1801 103.544 43.3963 101.221 49.6121C99.5009 54.2131 97.7814 58.8141 96.0615 63.4156C95.423 65.1239 94.7848 66.8323 94.1462 68.541C102.901 49.6046 111.655 30.6679 120.41 11.7315C119.572 9.48766 118.733 7.24383 117.895 4.99999C116.527 8.65906 115.159 12.3181 113.792 15.9776Z" fill="url(#paint3_linear_221_106)"/>
<path fill-rule="evenodd" clip-rule="evenodd" d="M238.837 4.99998H286.332L230.109 155.43H182.616L238.837 4.99998Z" fill="url(#paint4_linear_221_106)"/>
<defs>
<radialGradient id="paint0_radial_221_106" cx="0" cy="0" r="1" gradientUnits="userSpaceOnUse" gradientTransform="translate(176.593 128.458) rotate(44.0655) scale(208.26 8782.6)">
<stop stop-color="#B6B6B6"/>
<stop offset="1" stop-color="#B6B6B6" stop-opacity="0"/>
</radialGradient>
<linearGradient id="paint1_linear_221_106" x1="271.815" y1="42.3639" x2="283.081" y2="18.6385" gradientUnits="userSpaceOnUse">
<stop stop-color="#262C2D"/>
<stop offset="0.692755" stop-color="#262C2D"/>
<stop offset="1" stop-color="#17191B"/>
</linearGradient>
<linearGradient id="paint2_linear_221_106" x1="108.882" y1="-62.3931" x2="-111.565" y2="322.539" gradientUnits="userSpaceOnUse">
<stop stop-color="#231F20"/>
<stop offset="1" stop-color="#AFAFAF"/>
</linearGradient>
<linearGradient id="paint3_linear_221_106" x1="103.364" y1="42.3639" x2="114.63" y2="18.6385" gradientUnits="userSpaceOnUse">
<stop stop-color="#262C2D"/>
<stop offset="0.692755" stop-color="#262C2D"/>
<stop offset="1" stop-color="#17191B"/>
</linearGradient>
<linearGradient id="paint4_linear_221_106" x1="277.301" y1="-62.3931" x2="56.8541" y2="322.539" gradientUnits="userSpaceOnUse">
<stop stop-color="#231F20"/>
<stop offset="1" stop-color="#AFAFAF"/>
</linearGradient>
</defs>
</svg>
